# xmcd
# 
# Track frame offsets:
#     150
#     18754
#     35610
#     49354
#     61990
#     75119
#     91394
#     107872
#     128174
# 
# Disc length: 1915
# 
# Revision: 0
# Processed by: cddbd v1.5.2PL0 Copyright (c) Steve Scherf et al.
# Submitted via: fre:ac v1.0.17
# 
DISCID=69077909
DTITLE=Thomas Wade - Thomas Wade Blue Country Soul
DYEAR=2016
DGENRE=Country
TTITLE0=01 Funny What Makes You Cry_Master_02
TTITLE1=02 Already Gone_Master_02
TTITLE2=03 Am I That Easy To Forget_Master_02
TTITLE3=04 Lock The Door_Master_02
TTITLE4=Everybody Wants You_Master_03
TTITLE5=That's What Love Looks Like_Master_04
TTITLE6=07 We've Got A Lot To Unlearn_Master_02
TTITLE7=08 Boise River_Master_02
TTITLE8=The Last Time_Master_03
EXTD=
EXTT0=
EXTT1=
EXTT2=
EXTT3=
EXTT4=
EXTT5=
EXTT6=
EXTT7=
EXTT8=
PLAYORDER=
